# xmcd CD database file
#
# Track frame offsets:
#	150
#	10439
#	23457
#	47482
#	63906
#	80248
#	94981
#	106997
#	122063
#	130896
#	143193
#	165611
#	175257
#	188121
#	204137
#	222867
#	239815
#	250476
#	262301
#
# Disc length: 3700 seconds
#
# Revision: 2
# Processed by: cddbd v1.5.2PL0 Copyright (c) Steve Scherf et al.
# Submitted via: CDex 1.70beta2
#
DISCID=160e7213
DTITLE=Various Artist - Swing-Night mit den legendären erfolgreichen Bandleadern
DYEAR=2003
DGENRE=Jazz
TTITLE0=Orchester Ambros Seelos - Trumpet Blues
TTITLE1=Max Greger - Night Train
TTITLE2=Hugo Strasser and Seine Hot Five - Creole Love Call
TTITLE3=Orchester Ambros Seelos - Summertime
TTITLE4=Hazy Osterwald - 's wonderful
TTITLE5=Max Greger - Stardust
TTITLE6=Orchester Ambros Seelos - Fly me to the Moon
TTITLE7=Hugo Strasser and Seine Hot Five - Melodie in F
TTITLE8=Max Greger - B.R.-Boogie
TTITLE9=Orchester Ambros Seelos - Chattanooga Choo Choo
TTITLE10=Hazy Osterwald - Moonglow
TTITLE11=Max Greger - Tequila
TTITLE12=Orchester Ambros Seelos - Route 66
TTITLE13=Hugo Strasser and Seine Hot Five - Secret Love
TTITLE14=Hazy Osterwald - Stompin' at the Savoy
TTITLE15=Orchester Ambros Seelos - Mack the Knife
TTITLE16=Hugo Strasser and Seine Hot Five - Means that you're grand (Bei mir bist du schön)
TTITLE17=Max Greger - Flamingo
TTITLE18=Orchester Ambros Seelos - In the Mood
EXTD=YEAR: 2003
EXTT0=
EXTT1=
EXTT2=
EXTT3=
EXTT4=
EXTT5=
EXTT6=
EXTT7=
EXTT8=
EXTT9=
EXTT10=
EXTT11=
EXTT12=
EXTT13=
EXTT14=
EXTT15=
EXTT16=
EXTT17=
EXTT18=
PLAYORDER=
